<?xml version="1.0" encoding="utf-8"?>
<!-- Generator: Adobe Illustrator 19.0.0, SVG Export Plug-In . SVG Version: 6.00 Build 0)  -->
<svg version="1.1" id="Capa_1" xmlns="http://www.w3.org/2000/svg" xmlns:xlink="http://www.w3.org/1999/xlink" x="0px" y="0px"
	 viewBox="0 0 230 60" style="enable-background:new 0 0 230 60;" xml:space="preserve">
<style type="text/css">
	.st0{fill:#FFFFFF;}
	.st1{fill:#C2C2C2;}
	.st2{fill:none;stroke:#C2C2C2;stroke-width:2;stroke-miterlimit:10;}
</style>
<g id="XMLID_7_">
	<path id="XMLID_22_" class="st0" d="M60.1,31.5h-2.8v-6.7h2.8v-0.5c0-2.8,0.7-4.9,2.1-6.3c0.8-0.8,1.6-1.3,2.7-1.6
		c1-0.3,2.3-0.5,3.7-0.5c1.3,0,2.4,0.1,3.3,0.2c0.9,0.1,1.6,0.3,2.3,0.5v6c-0.5-0.1-1-0.3-1.5-0.4c-0.5-0.1-1.1-0.1-1.7-0.1
		c-1.6,0-2.4,0.8-2.4,2.3v0.6H74v6.6h-5.5v17.6h-8.5V31.5z"/>
	<path id="XMLID_20_" class="st1" d="M76.7,16.1h8.6V28c0.8-1,1.7-1.9,2.9-2.7c1.2-0.8,2.6-1.2,4.3-1.2c2.6,0,4.7,0.8,6.1,2.4
		c1.5,1.6,2.2,3.8,2.2,6.6v16h-8.6V35.9c0-1.4-0.3-2.4-0.9-3.1c-0.6-0.7-1.4-1-2.4-1c-1,0-1.9,0.3-2.6,1c-0.7,0.7-1,1.7-1,3.1v13.2
		h-8.6V16.1z"/>
	<path id="XMLID_17_" class="st1" d="M117.5,49.7c-1.9,0-3.7-0.3-5.3-0.9c-1.6-0.6-3-1.5-4.1-2.6c-1.2-1.1-2.1-2.4-2.7-4
		c-0.6-1.6-1-3.3-1-5.2v-0.1c0-1.8,0.3-3.4,0.9-5c0.6-1.6,1.5-2.9,2.5-4.1c1.1-1.1,2.4-2,3.9-2.7c1.5-0.7,3.2-1,5-1
		c2.1,0,3.9,0.4,5.5,1.1c1.6,0.7,2.8,1.7,3.8,2.9c1,1.2,1.8,2.6,2.3,4.2c0.5,1.6,0.7,3.3,0.7,5.1c0,0.3,0,0.6,0,0.9
		c0,0.3,0,0.6,0,0.9h-16.3c0.3,1.4,1,2.4,1.9,3c0.9,0.7,2.1,1,3.4,1c1,0,2-0.2,2.8-0.6c0.9-0.4,1.7-1,2.6-1.9l4.7,3.9
		c-1.2,1.5-2.6,2.7-4.4,3.6C122,49.2,119.9,49.7,117.5,49.7z M121,34.9c-0.2-1.4-0.6-2.4-1.4-3.2c-0.8-0.8-1.7-1.2-2.9-1.2
		c-1.1,0-2.1,0.4-2.8,1.2c-0.7,0.8-1.2,1.9-1.4,3.2H121z"/>
	<path id="XMLID_15_" class="st1" d="M132.8,16.1h8.6v32.9h-8.6V16.1z"/>
	<path id="XMLID_13_" class="st1" d="M146.4,16.1h8.6v32.9h-8.6V16.1z"/>
	<path id="XMLID_10_" class="st1" d="M172.2,49.7c-2,0-3.8-0.3-5.4-1c-1.6-0.7-3.1-1.6-4.3-2.7c-1.2-1.1-2.1-2.5-2.8-4
		c-0.7-1.5-1-3.2-1-4.9v-0.1c0-1.7,0.3-3.4,1-4.9c0.7-1.5,1.6-2.9,2.8-4.1c1.2-1.2,2.6-2.1,4.3-2.8c1.7-0.7,3.5-1,5.4-1
		c2,0,3.8,0.3,5.4,1c1.6,0.7,3.1,1.6,4.3,2.7c1.2,1.2,2.1,2.5,2.8,4c0.7,1.5,1,3.2,1,4.9v0.1c0,1.7-0.3,3.4-1,4.9
		c-0.7,1.5-1.6,2.9-2.8,4.1c-1.2,1.2-2.6,2.1-4.3,2.8C175.9,49.3,174.1,49.7,172.2,49.7z M172.3,42.4c0.8,0,1.5-0.1,2.1-0.4
		c0.6-0.3,1.2-0.7,1.6-1.2c0.4-0.5,0.8-1.1,1-1.7c0.2-0.7,0.4-1.3,0.4-2.1v-0.1c0-0.7-0.1-1.4-0.4-2.1c-0.3-0.7-0.6-1.2-1.1-1.7
		c-0.5-0.5-1-0.9-1.6-1.2c-0.6-0.3-1.3-0.4-2.1-0.4c-0.8,0-1.5,0.1-2.1,0.4c-0.6,0.3-1.2,0.7-1.6,1.2c-0.4,0.5-0.8,1.1-1,1.7
		c-0.2,0.7-0.4,1.3-0.4,2.1v0.1c0,0.7,0.1,1.4,0.4,2.1c0.3,0.7,0.6,1.2,1.1,1.7c0.5,0.5,1,0.9,1.6,1.2
		C170.8,42.2,171.5,42.4,172.3,42.4z"/>
	<path id="XMLID_8_" class="st0" d="M186.4,24.7h8.4l3.2,12.3l3.7-12.4h7.1l3.8,12.5l3.3-12.4h8.3l-7.5,24.6h-7.4l-4-12.7l-4.1,12.7
		h-7.4L186.4,24.7z"/>
</g>
<g id="XMLID_2_">
	<polygon id="XMLID_6_" class="st2" points="20.8,6 35.6,15 35.6,29.7 20.8,39.4 6.1,29.7 6.1,14.5 	"/>
	<path id="XMLID_5_" class="st2" d="M20.7,28.4c3,0,5.5-2.5,5.5-5.5c0-3-2.5-5.5-5.5-5.5c-3,0-5.5,2.4-5.5,5.5
		C15.2,26,17.7,28.4,20.7,28.4z"/>
	<polyline id="XMLID_4_" class="st2" points="21.1,39.4 20.8,52.9 20.8,39.4 	"/>
	<polyline id="XMLID_3_" class="st2" points="35.6,29.7 20.8,53 6,29.7 	"/>
</g>
</svg>
