<?xml version="1.0" encoding="utf-8"?>
<!-- Generator: Adobe Illustrator 19.0.0, SVG Export Plug-In . SVG Version: 6.00 Build 0)  -->
<svg version="1.1" id="Capa_1" xmlns="http://www.w3.org/2000/svg" xmlns:xlink="http://www.w3.org/1999/xlink" x="0px" y="0px"
	 viewBox="0 0 222 50" style="enable-background:new 0 0 222 50;" xml:space="preserve">
<style type="text/css">
	.st0{fill:#FFFFFF;}
	.st1{fill:#C1C1C1;}
</style>
<g>
	<path class="st0" d="M5.3,23.4H1.6v-8.8h3.7v-0.7c0-3.7,0.9-6.5,2.7-8.3c1-1,2.1-1.7,3.5-2.1c1.3-0.4,3-0.6,4.8-0.6
		c1.7,0,3.2,0.1,4.3,0.2c1.1,0.2,2.1,0.4,3,0.7v7.9c-0.7-0.2-1.3-0.4-2-0.5C21,11,20.3,11,19.5,11c-2.1,0-3.2,1-3.2,3v0.8h7.3v8.6
		h-7.2v23H5.3V23.4z"/>
	<path class="st1" d="M27.2,3.2h11.3v15.5c1-1.3,2.3-2.5,3.8-3.6c1.5-1,3.4-1.5,5.7-1.5c3.4,0,6.1,1,8.1,3.1c1.9,2.1,2.9,5,2.9,8.6
		v20.9H47.6V29.1c0-1.8-0.4-3.1-1.2-4c-0.8-0.9-1.9-1.4-3.2-1.4c-1.4,0-2.5,0.5-3.4,1.4c-0.9,0.9-1.3,2.2-1.3,4v17.3H27.2V3.2z"/>
	<path class="st1" d="M80.5,47.2c-2.5,0-4.8-0.4-6.9-1.2c-2.1-0.8-3.9-1.9-5.4-3.4c-1.5-1.4-2.7-3.2-3.5-5.2
		c-0.8-2.1-1.3-4.3-1.3-6.8v-0.1c0-2.3,0.4-4.5,1.2-6.6c0.8-2,1.9-3.8,3.3-5.3c1.4-1.5,3.1-2.7,5.1-3.5c2-0.9,4.1-1.3,6.5-1.3
		c2.8,0,5.2,0.5,7.2,1.4c2,0.9,3.7,2.2,5,3.8c1.3,1.6,2.3,3.4,3,5.6c0.6,2.1,1,4.3,1,6.7c0,0.4,0,0.7,0,1.1c0,0.4,0,0.8-0.1,1.2
		H74.2c0.4,1.8,1.2,3.1,2.5,4c1.2,0.9,2.7,1.3,4.5,1.3c1.3,0,2.6-0.3,3.7-0.8c1.1-0.5,2.3-1.3,3.4-2.5l6.2,5.1
		c-1.5,2-3.4,3.5-5.7,4.7C86.4,46.6,83.7,47.2,80.5,47.2z M85.1,27.8c-0.2-1.8-0.8-3.2-1.8-4.2c-1-1-2.2-1.6-3.8-1.6
		c-1.5,0-2.7,0.5-3.7,1.6c-0.9,1-1.6,2.5-1.9,4.2H85.1z"/>
	<path class="st1" d="M100.7,3.2H112v43.2h-11.3V3.2z"/>
	<path class="st1" d="M118.4,3.2h11.3v43.2h-11.3V3.2z"/>
	<path class="st1" d="M152.2,47.2c-2.6,0-4.9-0.4-7.1-1.3c-2.1-0.9-4-2.1-5.6-3.6c-1.6-1.5-2.8-3.3-3.7-5.3c-0.9-2-1.3-4.2-1.3-6.4
		v-0.1c0-2.3,0.4-4.4,1.3-6.5c0.9-2,2.1-3.8,3.7-5.3c1.6-1.5,3.4-2.7,5.6-3.6c2.2-0.9,4.5-1.3,7.1-1.3c2.6,0,4.9,0.4,7.1,1.3
		c2.1,0.9,4,2.1,5.6,3.6c1.6,1.5,2.8,3.3,3.7,5.3c0.9,2,1.3,4.2,1.3,6.4v0.1c0,2.3-0.4,4.4-1.3,6.5c-0.9,2-2.1,3.8-3.7,5.3
		c-1.6,1.5-3.4,2.7-5.6,3.6C157.2,46.7,154.8,47.2,152.2,47.2z M152.3,37.6c1,0,1.9-0.2,2.8-0.6c0.8-0.4,1.5-0.9,2.1-1.5
		c0.6-0.6,1-1.4,1.3-2.3c0.3-0.9,0.5-1.8,0.5-2.7v-0.1c0-1-0.2-1.9-0.5-2.8c-0.3-0.9-0.8-1.6-1.4-2.3c-0.6-0.6-1.3-1.2-2.2-1.6
		c-0.8-0.4-1.7-0.6-2.7-0.6c-1,0-2,0.2-2.8,0.6c-0.8,0.4-1.5,0.9-2.1,1.5c-0.6,0.7-1,1.4-1.3,2.3c-0.3,0.9-0.5,1.8-0.5,2.7v0.1
		c0,1,0.2,1.9,0.5,2.8c0.3,0.9,0.8,1.6,1.4,2.3c0.6,0.6,1.3,1.2,2.2,1.6C150.5,37.4,151.4,37.6,152.3,37.6z"/>
	<path class="st0" d="M170.9,14.4h11l4.2,16.1l4.9-16.2h9.3l5,16.3l4.3-16.2h10.8l-9.9,32.2h-9.7L195.6,30l-5.3,16.6h-9.6
		L170.9,14.4z"/>
</g>
</svg>
