<?xml version="1.0" encoding="utf-8"?>
<!-- Generator: Adobe Illustrator 18.0.0, SVG Export Plug-In . SVG Version: 6.00 Build 0)  -->
<!DOCTYPE svg PUBLIC "-//W3C//DTD SVG 1.1//EN" "http://www.w3.org/Graphics/SVG/1.1/DTD/svg11.dtd">
<svg version="1.1" id="Capa_1" xmlns="http://www.w3.org/2000/svg" xmlns:xlink="http://www.w3.org/1999/xlink" x="0px" y="0px"
	 viewBox="0 0 60 60" enable-background="new 0 0 60 60" xml:space="preserve">
<path fill-rule="evenodd" clip-rule="evenodd" d="M36.7,41.3c-7.8,5.3-17.8,3.3-23.3-3c-5.7-6.8-5.7-16.9,0.7-23.5
	c5.8-6.1,15.5-7.3,22.8-2.2c7.2,5,10.1,16,4.3,24.3c0.1,0.1,0.2,0.1,0.3,0.2c2.7,2.7,5.4,5.4,8.1,8.1c0.9,0.9,1.3,2.1,0.9,3.3
	c-0.8,2.3-3.6,2.9-5.3,1.2c-2.7-2.7-5.5-5.5-8.2-8.2C36.9,41.4,36.8,41.4,36.7,41.3 M15.6,26.8c-0.1,5.9,5,11.2,11.2,11.2
	C33,38,37.9,32.8,38,27c0.1-6.1-5.1-11.4-11.2-11.4C20.6,15.7,15.6,20.6,15.6,26.8"/>
</svg>
