<?xml version="1.0" encoding="utf-8"?>
<!-- Generator: Adobe Illustrator 18.0.0, SVG Export Plug-In . SVG Version: 6.00 Build 0)  -->
<!DOCTYPE svg PUBLIC "-//W3C//DTD SVG 1.1//EN" "http://www.w3.org/Graphics/SVG/1.1/DTD/svg11.dtd">
<svg version="1.1" id="Capa_1" xmlns="http://www.w3.org/2000/svg" xmlns:xlink="http://www.w3.org/1999/xlink" x="0px" y="0px"
	 viewBox="0 0 40 40" enable-background="new 0 0 40 40" xml:space="preserve">
<path fill-rule="evenodd" clip-rule="evenodd" d="M20,21.2c0.1-0.1,0.1-0.1,0.1-0.1c1.3-1.3,2.6-2.6,3.9-3.9c0.2-0.2,0.3-0.2,0.5,0
	c0.1,0.1,0.3,0.3,0.4,0.4c0.3,0.3,0.3,0.4,0,0.7c-1.5,1.5-3,3-4.5,4.5c0,0-0.1,0.1-0.1,0.1c-0.2,0.2-0.3,0.2-0.5,0
	c-0.1-0.1-0.2-0.2-0.3-0.3l-4.3-4.3c0,0-0.1-0.1-0.1-0.1c-0.1-0.1-0.1-0.3,0-0.4c0.2-0.2,0.3-0.4,0.5-0.5c0.1-0.1,0.3-0.1,0.4,0
	c0,0,0.1,0.1,0.1,0.1c1.2,1.2,2.5,2.5,3.7,3.7C19.9,21,19.9,21.1,20,21.2"/>
</svg>
